<?xml version="1.0" encoding="UTF-8"?>
<svg id="Layer_1" width="812px" height="433px" viewBox="0 0 812 433" version="1.1" xmlns="http://www.w3.org/2000/svg" xmlns:xlink="http://www.w3.org/1999/xlink">
    <!-- Generator: Sketch 53.2 (72643) - https://sketchapp.com -->
    <title>Desktop</title>
    <desc>Created with Sketch.</desc>
    <g id="Desktop" stroke="none" stroke-width="1" fill="none" fill-rule="evenodd">
        <polygon id="Path" fill="#000000" fill-rule="nonzero" points="221.091435 63.5430493 192.309039 119.114455 221.691068 203.47105 199.104883 203.47105 178.317597 142.302524 169.123221 160.293267 169.123221 203.47105 147.93618 203.47105 147.93618 0 169.123221 0 169.123221 121.913015 169.522977 121.913015 198.905005 63.5430493"></polygon>
        <polygon id="Path" fill="#000000" fill-rule="nonzero" points="274.688651 63.5430493 298.873858 203.47105 277.287062 203.47105 272.689874 171.687404 249.304178 171.687404 244.70699 203.47105 223.519949 203.47105 247.705156 63.5430493"></polygon>
        <polygon id="Path" fill="#000000" fill-rule="nonzero" points="261.296842 93.5276208 260.697209 93.5276208 252.102466 152.497278 269.891585 152.497278"></polygon>
        <polygon id="Path" fill="#000000" fill-rule="nonzero" points="361.065818 63.5430493 361.065818 83.5327637 338.479633 83.5327637 338.479633 203.47105 317.292592 203.47105 317.292592 83.5327637 294.706407 83.5327637 294.706407 63.5430493"></polygon>
        <path d="M432.282258,61.5440779 C451.670399,61.5440779 462.064041,72.9382151 462.064041,91.9284437 L462.064041,92.9279294 C462.064041,106.121141 456.86722,114.716718 440.477245,131.108284 L454.868443,153.496764 L455.268198,153.496764 L455.268198,132.907358 L473.656951,133.906844 L473.656951,156.895015 C473.656951,164.890901 472.85744,171.887301 470.458907,177.684318 L487.648393,203.47105 L462.463797,203.47105 L458.466242,197.074341 C452.46991,202.871358 444.4748,205.470021 434.480913,205.470021 C413.293872,205.470021 399.702186,193.476192 399.702186,171.28761 L399.702186,166.290181 C399.702186,153.696661 403.69974,142.902215 415.092772,129.908901 C405.49864,113.917129 402.500474,104.721861 402.500474,93.727518 L402.500474,92.5281351 C402.500474,72.3385236 412.894117,61.5440779 432.282258,61.5440779 Z" id="Path" fill="#000000" fill-rule="nonzero"></path>
        <path d="M432.482135,81.1339979 C426.485803,81.1339979 422.888004,85.1319408 422.888004,92.9279294 L422.888004,93.9274151 C422.888004,99.5245351 424.686903,105.121655 429.883725,115.116512 L430.28348,115.116512 C439.277979,105.121655 442.076267,100.124227 442.076267,93.5276208 L442.076267,92.5281351 C442.076267,85.331838 438.678345,81.1339979 432.482135,81.1339979 Z" id="Path" fill="#000000" fill-rule="nonzero"></path>
        <path d="M426.685681,147.299952 L426.285925,147.299952 C422.288371,154.696147 420.889226,159.893472 420.889226,166.090284 L420.889226,169.288638 C420.889226,180.882672 426.885559,185.880101 435.480302,185.880101 C440.477245,185.880101 444.674678,184.280924 447.872722,180.882672 L426.685681,147.299952 Z" id="Path" fill="#000000" fill-rule="nonzero"></path>
        <polygon id="Path" fill="#000000" fill-rule="nonzero" points="599.639892 63.5430493 599.639892 203.47105 578.852607 203.47105 551.0696 110.718775 550.669845 110.718775 550.669845 203.47105 530.682071 203.47105 530.682071 63.5430493 554.267644 63.5430493 579.252362 146.900158 579.652118 146.900158 579.652118 63.5430493"></polygon>
        <polygon id="Path" fill="#000000" fill-rule="nonzero" points="640.444933 53.4648739 640.444933 203.47105 619.257892 203.47105 619.257892 53.4648739"></polygon>
        <path d="M690.444351,61.5440779 C711.231636,61.5440779 723.424178,73.9377008 723.424178,95.126798 L723.424178,107.720318 L703.036648,108.719804 L703.036648,97.3256665 C703.036648,86.1314265 698.839216,81.1339979 691.043984,81.1339979 C683.248752,81.1339979 679.051319,86.1314265 679.051319,95.3266951 L679.051319,171.687404 C679.051319,180.882672 683.248752,185.880101 691.043984,185.880101 C698.839216,185.880101 703.036648,180.882672 703.036648,169.688432 L703.036648,154.096455 L723.424178,155.095941 L723.424178,171.887301 C723.424178,193.076398 711.231636,205.470021 690.444351,205.470021 C669.856943,205.470021 657.864278,193.076398 657.864278,171.887301 L657.864278,95.126798 C657.864278,73.9377008 669.856943,61.5440779 690.444351,61.5440779 Z" id="Path" fill="#000000" fill-rule="nonzero"></path>
        <polygon id="Path" fill="#000000" fill-rule="nonzero" points="811.400367 63.5430493 782.617972 119.114455 812 203.47105 789.413815 203.47105 768.62653 142.302524 759.432154 160.293267 759.432154 203.47105 738.245113 203.47105 738.245113 63.5430493 759.432154 63.5430493 759.432154 121.913015 759.831909 121.913015 789.213937 63.5430493"></polygon>
        <path d="M32.9798276,269.437107 C54.1668684,269.437107 66.3594108,281.83073 66.3594108,303.019827 L66.3594108,312.61489 L45.9718809,313.614375 L45.9718809,305.218695 C45.9718809,294.024455 41.7744483,289.027027 33.5794609,289.027027 C25.3844734,289.027027 21.1870408,294.024455 21.1870408,303.219724 L21.1870408,379.580433 C21.1870408,388.775701 25.1845956,393.77313 33.3795831,393.77313 C41.5745706,393.77313 45.5721255,388.775701 45.5721255,377.581461 L45.5721255,353.593804 L33.5794609,353.593804 L33.5794609,334.003884 L66.3594108,334.003884 L66.3594108,379.78033 C66.3594108,400.969427 54.1668684,413.36305 32.9798276,413.36305 C11.9926646,413.36305 0,400.969427 0,379.78033 L0,303.019827 C0,281.83073 11.9926646,269.437107 32.9798276,269.437107 Z" id="Path" fill="#000000" fill-rule="nonzero"></path>
        <path d="M115.159562,269.437107 C136.346602,269.437107 149.338656,282.830215 149.338656,304.818901 L149.338656,377.981256 C149.338656,399.969941 136.346602,413.36305 115.159562,413.36305 C93.9725209,413.36305 80.9804676,399.969941 80.9804676,377.981256 L80.9804676,304.818901 C80.9804676,282.830215 93.9725209,269.437107 115.159562,269.437107 Z" id="Path" fill="#000000" fill-rule="nonzero"></path>
        <path d="M115.159562,289.027027 C106.764696,289.027027 102.167508,294.624147 102.167508,305.018798 L102.167508,377.781358 C102.167508,388.17601 106.764696,393.77313 115.159562,393.77313 C123.554427,393.77313 128.151615,388.17601 128.151615,377.781358 L128.151615,305.018798 C128.151615,294.624147 123.554427,289.027027 115.159562,289.027027 Z" id="Path" fill="#000000" fill-rule="nonzero"></path>
        <polygon id="Path" fill="#000000" fill-rule="nonzero" points="223.323402 271.436078 223.323402 291.425793 200.737217 291.425793 200.404087 433 179.217047 433 179.550177 291.425793 156.963992 291.425793 156.963992 271.436078"></polygon>
        <polygon id="Path" fill="#000000" fill-rule="nonzero" points="355.302676 271.436078 355.302676 411.364078 334.115635 411.364078 334.115635 314.214067 333.71588 314.214067 316.126638 391.374364 303.534341 391.374364 285.945099 314.214067 285.545344 314.214067 285.545344 411.364078 265.557569 411.364078 265.557569 271.436078 293.340576 271.436078 309.930428 346.597404 310.330184 346.597404 326.720159 271.436078"></polygon>
        <polygon id="Path" fill="#000000" fill-rule="nonzero" points="418.494024 271.436078 442.679231 411.364078 421.092435 411.364078 416.495247 379.580433 393.109551 379.580433 388.512363 411.364078 367.325322 411.364078 391.510529 271.436078"></polygon>
        <polygon id="Path" fill="#000000" fill-rule="nonzero" points="405.102216 301.42065 404.502582 301.42065 395.90784 360.390307 413.696959 360.390307"></polygon>
        <path d="M524.858965,411.364078 L502.472658,411.364078 L485.682928,352.194524 L475.888918,352.194524 L475.888918,430.593516 L454.701878,430.593516 L454.701878,271.436078 L485.283172,271.436078 C508.069235,271.436078 520.461655,283.829701 520.461655,306.817873 L520.461655,316.81273 C520.461655,331.605118 515.264834,341.99977 505.470824,347.59689 L524.858965,411.364078 Z" id="Path" fill="#000000" fill-rule="nonzero"></path>
        <path d="M484.483661,291.025998 L475.888918,291.025998 L475.888918,332.604604 L484.483661,332.604604 C494.677426,332.604604 499.274614,327.207381 499.274614,315.41345 L499.274614,308.217153 C499.274614,296.423221 494.677426,291.025998 484.483661,291.025998 Z" id="Path" fill="#000000" fill-rule="nonzero"></path>
        <path d="M607.238577,411.364078 L584.85227,411.364078 L568.06254,352.194524 L558.26853,352.194524 L558.26853,411.364078 L537.081489,411.364078 L537.081489,271.436078 L567.662784,271.436078 C590.448847,271.436078 602.841267,283.829701 602.841267,306.817873 L602.841267,316.81273 C602.841267,331.605118 597.644446,341.99977 587.850436,347.59689 L607.238577,411.364078 Z" id="Path" fill="#000000" fill-rule="nonzero"></path>
        <path d="M566.863273,291.025998 L558.26853,291.025998 L558.26853,332.604604 L566.863273,332.604604 C577.057038,332.604604 581.654226,327.207381 581.654226,315.41345 L581.654226,308.217153 C581.654226,296.423221 577.057038,291.025998 566.863273,291.025998 Z" id="Path" fill="#000000" fill-rule="nonzero"></path>
        <polygon id="Path" fill="#000000" fill-rule="nonzero" points="640.648142 247.266222 640.648142 411.364078 619.461101 411.364078 619.461101 247.266222"></polygon>
        <polygon id="Path" fill="#000000" fill-rule="nonzero" points="719.82971 271.436078 719.82971 291.025998 681.453183 291.025998 681.453183 330.605633 712.434233 330.605633 712.434233 350.195553 681.453183 350.195553 681.453183 391.774158 719.82971 391.774158 719.82971 411.364078 660.266142 411.364078 660.266142 271.436078"></polygon>
        <path d="M765.032061,271.436078 C787.818124,271.436078 800.210544,283.829701 800.210544,306.817873 L800.210544,375.982284 C800.210544,398.970456 787.818124,411.364078 765.032061,411.364078 L734.650644,411.364078 L734.650644,271.436078 L765.032061,271.436078 Z" id="Path" fill="#000000" fill-rule="nonzero"></path>
        <path d="M764.23255,291.025998 L755.837685,291.025998 L755.837685,391.774158 L764.23255,391.774158 C774.426315,391.774158 779.023503,386.376936 779.023503,374.583004 L779.023503,308.217153 C779.023503,296.423221 774.426315,291.025998 764.23255,291.025998 Z" id="Path" fill="#000000" fill-rule="nonzero"></path>
    </g>
</svg>